<svg width="21" height="22" viewBox="0 0 21 22" fill="none" xmlns="http://www.w3.org/2000/svg">
<mask id="path-1-inside-1_1_90" fill="white">
<path d="M21 20.4017L15.134 14.5357C16.5436 12.8434 17.2466 10.6728 17.0966 8.4754C16.9466 6.27803 15.9552 4.22307 14.3287 2.73803C12.7022 1.25298 10.5657 0.452179 8.36381 0.502211C6.1619 0.552242 4.06404 1.44926 2.50665 3.00665C0.949256 4.56404 0.0522424 6.6619 0.00221076 8.86381C-0.0478209 11.0657 0.752981 13.2022 2.23803 14.8287C3.72307 16.4552 5.77803 17.4466 7.9754 17.5966C10.1728 17.7466 12.3434 17.0436 14.0357 15.634L19.9017 21.5L21 20.4017ZM1.58127 9.07201C1.58127 7.68938 1.99127 6.33779 2.75943 5.18817C3.52758 4.03855 4.61938 3.14253 5.89678 2.61341C7.17417 2.0843 8.57977 1.94586 9.93584 2.2156C11.2919 2.48534 12.5375 3.15114 13.5152 4.12882C14.4929 5.10649 15.1587 6.35212 15.4284 7.70819C15.6982 9.06426 15.5597 10.4699 15.0306 11.7473C14.5015 13.0246 13.6055 14.1165 12.4559 14.8846C11.3062 15.6528 9.95465 16.0628 8.57201 16.0628C6.71859 16.0607 4.94166 15.3235 3.63109 14.0129C2.32051 12.7024 1.58333 10.9254 1.58127 9.07201Z"/>
</mask>
<path d="M21 20.4017L15.134 14.5357C16.5436 12.8434 17.2466 10.6728 17.0966 8.4754C16.9466 6.27803 15.9552 4.22307 14.3287 2.73803C12.7022 1.25298 10.5657 0.452179 8.36381 0.502211C6.1619 0.552242 4.06404 1.44926 2.50665 3.00665C0.949256 4.56404 0.0522424 6.6619 0.00221076 8.86381C-0.0478209 11.0657 0.752981 13.2022 2.23803 14.8287C3.72307 16.4552 5.77803 17.4466 7.9754 17.5966C10.1728 17.7466 12.3434 17.0436 14.0357 15.634L19.9017 21.5L21 20.4017ZM1.58127 9.07201C1.58127 7.68938 1.99127 6.33779 2.75943 5.18817C3.52758 4.03855 4.61938 3.14253 5.89678 2.61341C7.17417 2.0843 8.57977 1.94586 9.93584 2.2156C11.2919 2.48534 12.5375 3.15114 13.5152 4.12882C14.4929 5.10649 15.1587 6.35212 15.4284 7.70819C15.6982 9.06426 15.5597 10.4699 15.0306 11.7473C14.5015 13.0246 13.6055 14.1165 12.4559 14.8846C11.3062 15.6528 9.95465 16.0628 8.57201 16.0628C6.71859 16.0607 4.94166 15.3235 3.63109 14.0129C2.32051 12.7024 1.58333 10.9254 1.58127 9.07201Z" fill="#2B2B2D"/>
<path d="M21 20.4017L22.4142 21.8159L23.8284 20.4017L22.4142 18.9875L21 20.4017ZM15.134 14.5357L13.5973 13.2556L12.4286 14.6587L13.7198 15.9499L15.134 14.5357ZM14.0357 15.634L15.4499 14.2198L14.1587 12.9286L12.7556 14.0973L14.0357 15.634ZM19.9017 21.5L18.4875 22.9142L19.9017 24.3284L21.3159 22.9142L19.9017 21.5ZM1.58127 9.07201H-0.418727L-0.418724 9.07423L1.58127 9.07201ZM8.57201 16.0628L8.5698 18.0628H8.57201V16.0628ZM22.4142 18.9875L16.5482 13.1215L13.7198 15.9499L19.5858 21.8159L22.4142 18.9875ZM16.6707 15.8157C18.4098 13.7279 19.277 11.0501 19.0919 8.3392L15.1012 8.6116C15.2162 10.2955 14.6775 11.9588 13.5973 13.2556L16.6707 15.8157ZM19.0919 8.3392C18.9069 5.62831 17.6838 3.09313 15.6772 1.26104L12.9802 4.21502C14.2266 5.35302 14.9863 6.92774 15.1012 8.6116L19.0919 8.3392ZM15.6772 1.26104C13.6706 -0.571052 11.0349 -1.559 8.31838 -1.49727L8.40925 2.50169C10.0966 2.46336 11.7338 3.07702 12.9802 4.21502L15.6772 1.26104ZM8.31838 -1.49727C5.60189 -1.43555 3.01378 -0.32891 1.09243 1.59243L3.92086 4.42086C5.1143 3.22742 6.7219 2.54003 8.40925 2.50169L8.31838 -1.49727ZM1.09243 1.59243C-0.82891 3.51378 -1.93555 6.10189 -1.99727 8.81838L2.00169 8.90925C2.04003 7.2219 2.72742 5.6143 3.92086 4.42086L1.09243 1.59243ZM-1.99727 8.81838C-2.059 11.5349 -1.07105 14.1706 0.76104 16.1772L3.71502 13.4802C2.57702 12.2338 1.96336 10.5966 2.00169 8.90925L-1.99727 8.81838ZM0.76104 16.1772C2.59313 18.1838 5.12831 19.4069 7.8392 19.5919L8.1116 15.6012C6.42774 15.4863 4.85302 14.7266 3.71502 13.4802L0.76104 16.1772ZM7.8392 19.5919C10.5501 19.777 13.2279 18.9098 15.3157 17.1707L12.7556 14.0973C11.4588 15.1775 9.79546 15.7162 8.1116 15.6012L7.8392 19.5919ZM12.6215 17.0482L18.4875 22.9142L21.3159 20.0858L15.4499 14.2198L12.6215 17.0482ZM21.3159 22.9142L22.4142 21.8159L19.5858 18.9875L18.4875 20.0858L21.3159 22.9142ZM3.58127 9.07201C3.58127 8.08494 3.87398 7.12003 4.42237 6.29931L1.09649 4.07703C0.108573 5.55555 -0.418725 7.29381 -0.418725 9.07201H3.58127ZM4.42237 6.29931C4.97076 5.47859 5.7502 4.83891 6.66214 4.46117L5.13141 0.765654C3.48856 1.44614 2.0844 2.59851 1.09649 4.07703L4.42237 6.29931ZM6.66214 4.46117C7.57408 4.08343 8.57755 3.9846 9.54566 4.17717L10.326 0.254029C8.58199 -0.0928804 6.77425 0.0851662 5.13141 0.765654L6.66214 4.46117ZM9.54566 4.17717C10.5138 4.36974 11.403 4.84506 12.101 5.54303L14.9294 2.7146C13.6721 1.45722 12.0701 0.600939 10.326 0.254029L9.54566 4.17717ZM12.101 5.54303C12.799 6.241 13.2743 7.13026 13.4669 8.09837L17.39 7.31801C17.0431 5.57397 16.1868 3.97198 14.9294 2.7146L12.101 5.54303ZM13.4669 8.09837C13.6594 9.06648 13.5606 10.0699 13.1829 10.9819L16.8784 12.5126C17.5589 10.8698 17.7369 9.06204 17.39 7.31801L13.4669 8.09837ZM13.1829 10.9819C12.8051 11.8938 12.1654 12.6733 11.3447 13.2217L13.567 16.5475C15.0455 15.5596 16.1979 14.1555 16.8784 12.5126L13.1829 10.9819ZM11.3447 13.2217C10.524 13.7701 9.55909 14.0628 8.57201 14.0628V18.0628C10.3502 18.0628 12.0885 17.5355 13.567 16.5475L11.3447 13.2217ZM8.57423 14.0628C7.25047 14.0613 5.98134 13.5348 5.0453 12.5987L2.21687 15.4272C3.90197 17.1123 6.1867 18.0601 8.5698 18.0628L8.57423 14.0628ZM5.0453 12.5987C4.10926 11.6627 3.58274 10.3936 3.58127 9.0698L-0.418724 9.07423C-0.416081 11.4573 0.53177 13.7421 2.21687 15.4272L5.0453 12.5987Z" fill="#2B2B2D" mask="url(#path-1-inside-1_1_90)"/>
</svg>
