<svg width="24" height="24" viewBox="0 0 24 24" fill="none" xmlns="http://www.w3.org/2000/svg">
<path d="M8.52 12.7H8.22437L8.08189 12.959L6.76189 15.359L6.35436 16.1H7.2H21.1V17.5H7.2C5.7606 17.5 4.84297 15.9552 5.53835 14.6765C5.53859 14.6761 5.53883 14.6756 5.53907 14.6752L7.1575 11.7501L7.28172 11.5256L7.17176 11.2937L2.85176 2.18573L2.71624 1.9H2.4H0.5V0.5H3.60748L8.58407 11.0139L8.71948 11.3H9.036H17.46H17.7613L17.902 11.0337L22.1047 3.08261L23.3281 3.75373L19.1198 11.7269C18.7976 12.3117 18.173 12.7 17.46 12.7H8.52ZM13.404 5.5H8.9V4.1H13.404H14.6111L13.7576 3.24645L12.2044 1.69325L13.1988 0.70586L17.2929 4.8L13.2 8.89289L12.214 7.90689L13.7587 6.35244L14.6057 5.5H13.404ZM5.312 21.6C5.312 20.5529 6.1594 19.7 7.2 19.7C8.24386 19.7 9.1 20.5561 9.1 21.6C9.1 22.6439 8.24386 23.5 7.2 23.5C6.1594 23.5 5.312 22.6471 5.312 21.6ZM17.312 21.6C17.312 20.5529 18.1594 19.7 19.2 19.7C20.2439 19.7 21.1 20.5561 21.1 21.6C21.1 22.6439 20.2439 23.5 19.2 23.5C18.1594 23.5 17.312 22.6471 17.312 21.6Z" fill="#2B2B2D" stroke="#4E4E50"/>
</svg>
